<?xml version="1.0" encoding="UTF-8" standalone="no"?>
<svg
   xmlns:dc="http://purl.org/dc/elements/1.1/"
   xmlns:cc="http://creativecommons.org/ns#"
   xmlns:rdf="http://www.w3.org/1999/02/22-rdf-syntax-ns#"
   xmlns:svg="http://www.w3.org/2000/svg"
   xmlns="http://www.w3.org/2000/svg"
   xmlns:sodipodi="http://sodipodi.sourceforge.net/DTD/sodipodi-0.dtd"
   xmlns:inkscape="http://www.inkscape.org/namespaces/inkscape"
   width="22"
   height="22"
   viewBox="0 0 22 22"
   version="1.1"
   id="svg3767"
   sodipodi:docname="red-cross.svg"
   inkscape:version="0.92.3 (2405546, 2018-03-11)">
  <metadata
     id="metadata3771">
    <rdf:RDF>
      <cc:Work
         rdf:about="">
        <dc:format>image/svg+xml</dc:format>
        <dc:type
           rdf:resource="http://purl.org/dc/dcmitype/StillImage" />
      </cc:Work>
    </rdf:RDF>
  </metadata>
  <sodipodi:namedview
     pagecolor="#ffffff"
     bordercolor="#666666"
     borderopacity="1"
     objecttolerance="10"
     gridtolerance="10"
     guidetolerance="10"
     inkscape:pageopacity="0"
     inkscape:pageshadow="2"
     inkscape:window-width="1920"
     inkscape:window-height="1004"
     id="namedview3769"
     showgrid="false"
     inkscape:zoom="37.090909"
     inkscape:cx="6.120098"
     inkscape:cy="11"
     inkscape:window-x="0"
     inkscape:window-y="24"
     inkscape:window-maximized="1"
     inkscape:current-layer="svg3767" />
  <defs
     id="defs3763">
    <style
       id="current-color-scheme"
       type="text/css">
   .ColorScheme-Text { color:#404040; } .ColorScheme-Highlight { color:#5294e2; }
  </style>
  </defs>
  <path
     style="color:#404040;fill:#ff4040;fill-opacity:1;stroke-width:1.5"
     class="ColorScheme-Text"
     d="M 8,0.5 C 7.17155,0.50015 6.50015,1.17155 6.5,2 V 6.5 H 2 C 1.17155,6.50015 0.50015,7.17155 0.5,8 v 6 c 1.5e-4,0.828 0.67155,1.5 1.5,1.5 H 6.5 V 20 c 1.5e-4,0.828 0.67155,1.5 1.5,1.5 h 6 c 0.828,0 1.5,-0.672 1.5,-1.5 V 15.5 H 20 c 0.828,0 1.5,-0.672 1.5,-1.5 V 8 C 21.5,7.17155 20.828,6.50015 20,6.5 H 15.5 V 2 C 15.5,1.17155 14.828,0.50015 14,0.5 Z m 1.5,3 h 3 v 6 h 6 v 3 h -6 v 6 h -3 v -6 h -6 v -3 h 6 z"
     id="path3765"
     inkscape:connector-curvature="0" />
</svg>
